# xmcd
#
# Track frame offsets:
#	150
#	15884
#	33616
#	46178
#	58855
#	74902
#	90501
#	103675
#	119960
#	130347
#
# Disc length: 1937 seconds
#
# Revision: 1
# Processed by: cddbd v1.5.1PL2 Copyright (c) Steve Scherf et al.
# Submitted via: audiograbber 1.83.01
#
DISCID=90078f0a
DTITLE=The Crabb Family - Best Of The Crabb Family
DYEAR=1900
DGENRE=Southern Gospel
TTITLE0=Trail Of Tears
TTITLE1=Two Little Feet
TTITLE2=The Lamb, The Lion And The King
TTITLE3=He's Father To Me
TTITLE4=No Hearse At My Front Door
TTITLE5=God's Barrel Don't Run Dry
TTITLE6=Since I've Started Walking With Him
TTITLE7=Please Forgive Me
TTITLE8=I'm Running On
TTITLE9=He Made The Son Rise For Me
EXTD=
EXTT0=
EXTT1=
EXTT2=
EXTT3=
EXTT4=
EXTT5=
EXTT6=
EXTT7=
EXTT8=
EXTT9=
PLAYORDER=
